<svg xmlns="http://www.w3.org/2000/svg" width="72.322" height="69.335" viewBox="0 0 72.322 69.335">
  <path id="Path_164" data-name="Path 164" d="M111.342,217.067l10.478,10.478a1.774,1.774,0,0,1-1.251,3.029H108.552V242.59a1.77,1.77,0,0,1-3.054,1.226L92.889,231.207a28.4,28.4,0,0,1-6.568.765,28.835,28.835,0,0,1-5.556-.543c-.428-.091-.856-.181-1.284-.288L66.856,243.759a1.77,1.77,0,0,1-3.054-1.226V230.524H51.786a1.774,1.774,0,0,1-1.251-3.029l10.642-10.642c-.428-.806-.815-1.63-1.169-2.469a28.3,28.3,0,0,1-1.613-5.333,28.53,28.53,0,0,1,7.794-25.671v-.008a29.117,29.117,0,0,1,4.321-3.539,28.64,28.64,0,0,1,10.255-4.255,28.643,28.643,0,0,1,11.1,0,28.64,28.64,0,0,1,10.255,4.255,28.7,28.7,0,0,1,4.321,3.539l.091.1a28.387,28.387,0,0,1,7.7,14.478,28.523,28.523,0,0,1-1.613,16.437c-.387.922-.815,1.819-1.284,2.683ZM73.366,228.853h0l-.23-.123h0l-.074-.033h0l-.082-.049h0l-.074-.033h0l-.074-.041h0l-.082-.049-.074-.041h0l-.156-.082-.074-.041-.074-.041-.074-.041h0l-.074-.049-.082-.041-.074-.041-.074-.049-.074-.041-.074-.041-.074-.049-.074-.041-.082-.049-.074-.041-.074-.049-.074-.041-.074-.049-.074-.041-.074-.049-.074-.049-.074-.041-.074-.049-.074-.049-.066-.049-.074-.049-.074-.041-.074-.049-.074-.049a28.394,28.394,0,0,1-4.321-3.547v.008l-.041-.041-.025-.025-.008-.016-.041-.033-.008-.008-.025-.033-.033-.033L66,223.437l-.041-.033-.016-.017-.016-.025-.041-.041h0l-.033-.041-.025-.017-.016-.016-.033-.041-.008-.008-.033-.033-.148-.156h0a27.23,27.23,0,0,1-2.494-3.054l-7.021,7.021H65.58a1.767,1.767,0,0,1,1.77,1.77v9.506l8.338-8.338-.255-.107c-.7-.288-1.391-.609-2.066-.955Zm5.3-1.621c.23.066.469.14.724.214l.14.041c.626.181,1.268.329,1.918.461a25.374,25.374,0,0,0,11.391-.387,1.182,1.182,0,0,1,.23-.057l.1-.033h.008l.14-.041.049-.008.1-.033h0l.091-.033.28-.082.058-.016.041-.017a24.26,24.26,0,0,0,4.922-2.2c.173-.1.346-.2.519-.3l.025-.017.058-.041.074-.041.016-.008.082-.058.025-.016.058-.033.074-.05.016-.008.082-.058.033-.016.049-.033.074-.049.008-.008.091-.058.033-.025.041-.033.082-.049h.008l.082-.058.033-.033.049-.025.329-.23v-.008l.123-.082.041-.025.321-.247h.008l.362-.28.025-.025.082-.058.016-.016.214-.173.016-.016.123-.1.016-.017c.156-.123.3-.247.453-.379l.008-.008.082-.066.016-.025.115-.1.016-.008.1-.091.049-.049.066-.058.008-.008.214-.2.008-.008.074-.066.033-.033.041-.033.066-.066.008-.008.074-.066.033-.033.041-.041.066-.066h0l.074-.074.033-.033.041-.033.074-.074a25.184,25.184,0,0,0,1.975-2.23,24.613,24.613,0,0,0,1.7-2.453l.033-.049a23.77,23.77,0,0,0,1.7-3.358,24.241,24.241,0,0,0,1.407-4.658,25.106,25.106,0,0,0,0-9.745,24.506,24.506,0,0,0-1.407-4.667,25.4,25.4,0,0,0-2.3-4.3,25.053,25.053,0,0,0-3.029-3.7l-.082-.082a25.2,25.2,0,0,0-3.786-3.111,24.559,24.559,0,0,0-4.3-2.3,25.062,25.062,0,0,0-19.07,0,24.56,24.56,0,0,0-4.3,2.3,25.132,25.132,0,0,0-3.778,3.111h-.008a24.957,24.957,0,0,0-5.408,8.082,25.09,25.09,0,0,0-1.407,14.412,24.58,24.58,0,0,0,3.021,7.868v.008l.025.041.008.016.016.025.025.041h0l.025.041.016.025.008.017.033.049.025.033.016.033v.008l.033.041.008.017.016.025.025.041h0l.025.049.008.008.016.025.025.041h0l.033.041.008.025.016.016.025.041v.008l.025.033.016.033.008.008.025.041.008.008.025.033.148.222.008.016.033.041v.008a24.672,24.672,0,0,0,2.617,3.259l.016.016.016.017.033.033.008.008.033.033.016.017.016.016.033.033.008.008.025.033.025.025.008.008.041.033.008.017.025.017.033.033v.008l.033.033.016.017.025.016.033.041v.008a25.357,25.357,0,0,0,3.778,3.1,24.858,24.858,0,0,0,4.313,2.3l.025.008.016.008.1.033.008.008.025.008.016.008.016.008H77l.016.008.025.008.016.008h.008l.016.008.016.008.025.008.008.008h.016l.016.008.025.008.016.008h0l.016.008.025.008.025.008h0l.016.008.025.008.016.008.016.008h0l.025.008.025.008.016.008h0l.025.008.016.008.025.008h.008l.008.008.025.008c.313.115.625.23.947.338h.025l.016.008.016.008.025.008h0l.016.008h.025l.016.008.016.008h.008l.016.008.016.008ZM69.012,197.84a1.774,1.774,0,0,0-1.144,3.1l8.519,7.515-2.461,11a1.767,1.767,0,0,0,2.6,1.992l9.786-5.786,9.77,5.794h.008a1.746,1.746,0,0,0,1.276.2,1.766,1.766,0,0,0,1.35-2.1l-2.477-11.095,8.527-7.506h0a1.751,1.751,0,0,0,.593-1.161,1.784,1.784,0,0,0-1.6-1.934L92.453,196.8l-4.5-10.436h-.008a1.74,1.74,0,0,0-.922-.922,1.766,1.766,0,0,0-2.321.922l-4.51,10.428L69.012,197.84Zm12.543,2.379-8.272.774,6.239,5.5a1.788,1.788,0,0,1,.551,1.72l-1.819,8.107,7.136-4.222a1.76,1.76,0,0,1,1.819-.008l7.161,4.239-1.786-7.967a1.782,1.782,0,0,1,.527-1.86L99.35,201l-8.148-.765a1.772,1.772,0,0,1-1.589-1.078l-3.292-7.63L83.037,199.1a1.749,1.749,0,0,1-1.482,1.119Zm23.474,24.741-.354.3-.016.016-.066.058-.091.074-.091.074-.354.288-.074.057-.016.016-.09.066c-.239.189-.486.37-.733.56l-.091.066q-.654.469-1.333.914h-.008l-.486.3-.1.058-.156.1-.041.025-.1.057-.008.008-.091.049-.066.041-.033.025-.058.033-.058.033h0l-.066.033-.058.033-.033.016a28.452,28.452,0,0,1-3.638,1.745h-.016l8.3,8.3v-9.5a1.776,1.776,0,0,1,1.778-1.778h9.5l-6.873-6.873c-.23.313-.461.626-.7.93a27.965,27.965,0,0,1-2.263,2.551l-.074.074-.041.041-.041.041-.082.082H106.2l-.074.082-.049.041-.033.033-.082.082h-.008l-.074.074-.049.049-.033.033-.091.074-.008.008-.074.074-.049.049-.033.025-.082.082-.016.008-.074.066-.049.049-.033.025-.082.074-.016.016-.074.066-.058.049Z" transform="translate(-50.016 -175.033)" fill="#d3b063" fill-rule="evenodd"/>
</svg>
