<svg xmlns="http://www.w3.org/2000/svg" width="71.879" height="60.438" viewBox="0 0 71.879 60.438">
  <path id="Path_163" data-name="Path 163" d="M134.666,98.082H122.83l7.589,32.012h4.247V98.082Zm-48.9.5,25.869,2.6,7.5-2.576-.448-1.887a1.891,1.891,0,0,1-.069-.5,1.864,1.864,0,0,1,1.861-1.861h16.04a1.864,1.864,0,0,1,1.861,1.861v35.733a1.857,1.857,0,0,1-1.861,1.852H130.7l.017.112a8.023,8.023,0,0,1-1.172,5.16c-.267.439-.551.87-.844,1.292l-.1.146a64,64,0,0,1-9.493,10.277l-.009.009-.078.069-.68.629-1.456,1.344a7.14,7.14,0,0,1-8.718.853l-1.783-1.1a4.9,4.9,0,0,1-2.378,1.508l-.1.035a4.365,4.365,0,0,1-3.342-.448l-.19-.1c-6.358-4.23-12.663-8.7-18.969-13.025a5.53,5.53,0,0,1-1.275-1.18,4.581,4.581,0,0,1-.844-1.731,4.765,4.765,0,0,1-.077-1.9,4.665,4.665,0,0,1,.7-1.775l.172-.284-2.188-1.826-.138.577a1.855,1.855,0,0,1-1.8,1.43H68.369a1.857,1.857,0,0,1-1.861-1.852V96.282a1.857,1.857,0,0,1,1.861-1.852h16.04a1.857,1.857,0,0,1,1.861,1.852,1.891,1.891,0,0,1-.069.5l-.431,1.8ZM120,102.235,125.75,126.5l-14.524-14.524v.009a1.858,1.858,0,0,0-1.766-.491l-13.37,3.437a4.967,4.967,0,0,1-3.213-.25,4.5,4.5,0,0,1-2.214-2.128l-.121-.241L120,102.235Zm-41.16,25.594,6.065-25.62,18.314,1.843-15.868,5.427a1.851,1.851,0,0,0-1.154,2.352,1.471,1.471,0,0,0,.146.336l.991,2.016a8.194,8.194,0,0,0,4.049,3.877,8.555,8.555,0,0,0,5.617.457l12.345-3.17,16.428,16.428a4.293,4.293,0,0,1,.913,4.816l-10.406-8.873a1.851,1.851,0,1,0-2.4,2.817l10.742,9.166c-.663.861-1.361,1.7-2.1,2.507l-10.846-8.261a1.856,1.856,0,0,0-2.248,2.955l10.51,7.994c-.749.75-1.525,1.482-2.309,2.214L99.088,134.375l-.052-.034-.043-.026-7.977-5.479a6.437,6.437,0,0,0-2.335-1.008,6.358,6.358,0,0,0-2.55.017,6.215,6.215,0,0,0-2.352.973,6.311,6.311,0,0,0-1.688,1.723l-3.248-2.714Zm3.213-29.686H70.229v32.011h4.247l7.581-32.011Zm22.165,51.075.052-.1.129-.181c.965-1.473,1.912-2.972,2.869-4.445l-2.817-1.93-4.23,6.435,2.24,1.525a.8.8,0,0,0,.517.034l.052-.017a1.13,1.13,0,0,0,.62-.465l.569-.853Zm4.212.293,1.68,1.042a3.576,3.576,0,0,0,2.205.526,3.5,3.5,0,0,0,2.042-.948l.482-.439-4.523-3.11c-.629.974-1.258,1.956-1.887,2.929Zm-7.029-9.045-2.92-2.007-4.307,6.383,3,2.059,4.23-6.435Zm-5.978-4.109-2.817-1.93L88.2,140.733l2.92,2.007,4.307-6.383Zm-5.867-4.023-.637-.439a2.527,2.527,0,0,0-.982-.431,2.854,2.854,0,0,0-2.076.414,2.748,2.748,0,0,0-.732.775l-.991,1.551c-.043.069-.086.138-.138.207l-.982,1.551a1.07,1.07,0,0,0-.164.388,1.176,1.176,0,0,0,.026.422.862.862,0,0,0,.155.336,1.959,1.959,0,0,0,.457.4l1.654,1.137Z" transform="translate(-66.508 -94.361)" fill="#d3b063" fill-rule="evenodd"/>
</svg>
