<svg xmlns="http://www.w3.org/2000/svg" width="59.791" height="62.075" viewBox="0 0 59.791 62.075">
  <path id="Path_167" data-name="Path 167" d="M339.705,204.024H315.273a4.638,4.638,0,0,1-3.284-1.371l-.008.008a4.634,4.634,0,0,1-1.363-3.291V163.43a4.637,4.637,0,0,1,1.371-3.283l-.008-.008a4.648,4.648,0,0,1,3.291-1.363h50.475a4.666,4.666,0,0,1,4.662,4.654v35.94a4.637,4.637,0,0,1-1.37,3.283v.008a4.648,4.648,0,0,1-3.291,1.363h-.232a11.62,11.62,0,0,1,.062,1.169v13.986a1.676,1.676,0,0,1-1.673,1.673H341.37a1.633,1.633,0,0,1-.767-.194l-13.165-6.838a4.106,4.106,0,0,1-2.222-3.663v-.984a4.037,4.037,0,0,1,1.3-3l.116-.108a4.118,4.118,0,0,1,1.533-.852,3.978,3.978,0,0,1,1.742-.124l9.8,1.355v-2.416Zm-20.638-21.342v-2.563a1.669,1.669,0,0,0-3.338,0v2.563a1.669,1.669,0,0,0,3.338,0Zm17.145-2.95h-5.971a1.669,1.669,0,1,0,0,3.338h5.971a1.669,1.669,0,1,0,0-3.338Zm3.756-5.746-4.213-4.221a1.67,1.67,0,1,0-2.362,2.362l4.213,4.22a1.67,1.67,0,0,0,2.362-2.362Zm6.73-1.409v-5.963a1.669,1.669,0,0,0-3.338,0v5.963a1.669,1.669,0,0,0,3.338,0Zm7.171,10.493h5.939a1.669,1.669,0,1,0,0-3.338h-5.939a1.669,1.669,0,1,0,0,3.338Zm-1.417-6.737,4.213-4.2a1.67,1.67,0,0,0-2.362-2.362l-4.2,4.2a1.667,1.667,0,0,0,2.354,2.362Zm9.456,26.484h0v-.008a8.764,8.764,0,0,0-8.379-6.319H348.68a1.669,1.669,0,0,1-1.665-1.673V181.775a1.978,1.978,0,0,0-.581-1.4l-.008-.008a1.973,1.973,0,0,0-1.4-.573,2,2,0,0,0-1.4.581l-.062.062a2.006,2.006,0,0,0-.519,1.34v26.577a1.669,1.669,0,0,1-1.673,1.665,1.776,1.776,0,0,1-.348-.031l-11.569-1.6a.787.787,0,0,0-.333.023.726.726,0,0,0-.294.17l-.062.046a1.176,1.176,0,0,0-.147.209.891.891,0,0,0-.062.341v.984a.832.832,0,0,0,.1.418.82.82,0,0,0,.318.287l12.8,6.652h20.459V205.193a8.642,8.642,0,0,0-.325-2.377Zm2.788-2.13h1.053a1.331,1.331,0,0,0,.929-.379l.008-.008a1.3,1.3,0,0,0,.387-.929V163.43a1.311,1.311,0,0,0-.4-.929,1.291,1.291,0,0,0-.929-.387H324.3v38.572h15.4V181.775a5.313,5.313,0,0,1,1.463-3.655l.093-.108a5.319,5.319,0,0,1,7.519,0l.008.008a5.305,5.305,0,0,1,1.564,3.756v11.368h3.175a12.092,12.092,0,0,1,11.167,7.542Zm-43.73-38.572h-5.692a1.305,1.305,0,0,0-.929.387h-.008a1.317,1.317,0,0,0-.379.929v35.94a1.3,1.3,0,0,0,.387.929v.008a1.331,1.331,0,0,0,.929.379h5.692Z" transform="translate(-310.619 -158.776)" fill="#d3b063" fill-rule="evenodd"/>
</svg>
