<svg xmlns="http://www.w3.org/2000/svg" width="50.074" height="44.886" viewBox="0 0 50.074 44.886">
  <path id="Path_168" data-name="Path 168" d="M157.248,272.9a1.691,1.691,0,0,0,1.212-.5l.049-.043a1.7,1.7,0,0,0,.449-1.163,1.726,1.726,0,0,0-.5-1.218v.006a1.711,1.711,0,0,0-2.923,1.213,1.712,1.712,0,0,0,1.711,1.711Zm-32.886,18.474a1.712,1.712,0,0,0,1.711-1.711,1.71,1.71,0,0,0-2.917-1.212,1.714,1.714,0,0,0,1.206,2.923Zm3.089,1.372a4.359,4.359,0,0,0,1.28-3.083,4.422,4.422,0,0,0-.468-1.969l2.511-2.258v13.551H119.783a1.765,1.765,0,0,1-1.754-1.754V261.167a1.754,1.754,0,0,1,1.754-1.754h10.991v22.461l-4.369,3.932a4.313,4.313,0,0,0-2.043-.511,4.366,4.366,0,1,0,3.089,7.452Zm13.212-16.492a1.714,1.714,0,0,0,1.212-2.923,1.708,1.708,0,0,0-2.425,0l-.049.049a1.729,1.729,0,0,0,.012,2.338l.037.037v-.006a1.7,1.7,0,0,0,1.212.5Zm3.089,1.372a4.344,4.344,0,0,0,1.262-2.72l2.375-.449v24.529H133.426V283.051l5.175-4.659a4.368,4.368,0,0,0,5.151-.763Zm-7-1.138-3.329,3V259.414h13.963v12.351l-2.966.56a4.366,4.366,0,0,0-6.849-.868l-.074.086a4.34,4.34,0,0,0-1.2,3,4.39,4.39,0,0,0,.455,1.945Zm28.689-1.7v22.449a4.412,4.412,0,0,1-4.412,4.406H119.783a4.423,4.423,0,0,1-4.412-4.406V261.167a4.434,4.434,0,0,1,4.412-4.412h41.249a4.423,4.423,0,0,1,4.412,4.412v13.619Zm-4.5,24.209-.086-.006H150.048V273.961l3.391-.64a4.2,4.2,0,0,0,.726.954,4.36,4.36,0,0,0,6.172,0l.074-.08a4.347,4.347,0,0,0-.074-6.086V268.1a4.36,4.36,0,0,0-6.172,0,4.323,4.323,0,0,0-1.255,2.622l-2.862.542V259.414h10.985a1.765,1.765,0,0,1,1.76,1.754v36.068a1.765,1.765,0,0,1-1.76,1.754Z" transform="translate(-115.371 -256.755)" fill="#d3b063" fill-rule="evenodd"/>
</svg>
