<svg xmlns="http://www.w3.org/2000/svg" width="51.213" height="53.438" viewBox="0 0 51.213 53.438">
  <path id="Path_166" data-name="Path 166" d="M324.5,156.454H313.511v6.593h17.753v-6.593Zm9.633,6.593h4.22v-6.593h-4.22v6.593Zm7.093,0h17.747v-6.593H341.231v6.593Zm-7.093-11.733v2.26h4.22v-1.987a1.16,1.16,0,0,1-.12-.193,1.571,1.571,0,0,0-.54-.527,1.373,1.373,0,0,0-.72-.2h-1.633a1.4,1.4,0,0,0-.733.2,1.44,1.44,0,0,0-.473.447Zm0,14.607v27.067h4.22V165.921Zm-2.873,27.067V165.921H315.718v24.293a2.754,2.754,0,0,0,2.76,2.773Zm0-39.413v-2.467c-3.793-4.707-7.28-6.1-9.847-5.78a4.712,4.712,0,0,0-3.52,2.26,3.435,3.435,0,0,0-.113,3.44c.813,1.427,2.88,2.54,6.627,2.547Zm9.967-2.68v2.68h6.68c3.747-.007,5.807-1.12,6.627-2.547a3.436,3.436,0,0,0-.12-3.44,4.688,4.688,0,0,0-3.52-2.26c-2.527-.313-5.94,1.033-9.667,5.567Zm0,15.027v27.067h12.693a2.776,2.776,0,0,0,2.766-2.773V165.921Zm-1.8-17.34c4.333-5.04,8.547-6.5,11.82-6.093a7.552,7.552,0,0,1,5.646,3.66,6.242,6.242,0,0,1,.127,6.307,5.877,5.877,0,0,1-.82,1.12h4.213a1.437,1.437,0,0,1,1.433,1.44v9.467a1.437,1.437,0,0,1-1.433,1.44h-.853v24.293a5.656,5.656,0,0,1-5.64,5.647H318.478a5.657,5.657,0,0,1-5.633-5.647V165.921h-.767a1.442,1.442,0,0,1-1.44-1.44v-9.467a1.442,1.442,0,0,1,1.44-1.44h4.033a6.512,6.512,0,0,1-.82-1.12,6.274,6.274,0,0,1,.127-6.307,7.565,7.565,0,0,1,5.653-3.66c3.267-.407,7.487,1.053,11.813,6.087.08-.06.167-.113.253-.167a4.322,4.322,0,0,1,2.207-.613h1.633a4.292,4.292,0,0,1,2.193.613C339.258,148.461,339.345,148.521,339.431,148.581Z" transform="translate(-310.638 -142.423)" fill="#d3b063" fill-rule="evenodd"/>
</svg>
