<svg id="Group_34" data-name="Group 34" xmlns="http://www.w3.org/2000/svg" xmlns:xlink="http://www.w3.org/1999/xlink" width="75.006" height="116.001" viewBox="0 0 75.006 116.001">
  <defs>
    <linearGradient id="linear-gradient" x1="0.865" y1="0.121" x2="0.413" y2="0.609" gradientUnits="objectBoundingBox">
      <stop offset="0" stop-color="#231f20"/>
      <stop offset="0.062" stop-color="#231f20" stop-opacity="0.859"/>
      <stop offset="0.333" stop-color="#231f20" stop-opacity="0.376"/>
      <stop offset="0.63" stop-color="#231f20" stop-opacity="0.09"/>
      <stop offset="1" stop-color="#231f20" stop-opacity="0"/>
    </linearGradient>
    <linearGradient id="linear-gradient-2" x1="0.244" y1="0.112" x2="0.599" y2="0.629" xlink:href="#linear-gradient"/>
    <linearGradient id="linear-gradient-3" x1="0.153" y1="0.819" x2="0.821" y2="0.315" xlink:href="#linear-gradient"/>
    <linearGradient id="linear-gradient-4" x1="0.574" y1="0.872" x2="0.195" y2="0.382" xlink:href="#linear-gradient"/>
    <linearGradient id="linear-gradient-5" x1="0.851" y1="0.784" x2="0.334" y2="0.345" xlink:href="#linear-gradient"/>
    <linearGradient id="linear-gradient-6" x1="0.199" y1="0.2" x2="0.866" y2="0.787" xlink:href="#linear-gradient"/>
    <linearGradient id="linear-gradient-7" x1="0.008" y1="0.619" x2="0.764" y2="0.386" xlink:href="#linear-gradient"/>
    <linearGradient id="linear-gradient-8" x1="1.052" y1="0.959" x2="0.138" y2="0.289" xlink:href="#linear-gradient"/>
    <linearGradient id="linear-gradient-9" x1="0.014" y1="0.469" x2="0.916" y2="0.546" xlink:href="#linear-gradient"/>
    <linearGradient id="linear-gradient-10" x1="1.016" y1="0.534" x2="-0.007" y2="0.481" xlink:href="#linear-gradient"/>
    <linearGradient id="linear-gradient-11" x1="90.58" y1="0.534" x2="89.557" y2="0.481" xlink:href="#linear-gradient"/>
    <linearGradient id="linear-gradient-12" x1="1.021" y1="0.278" x2="0.107" y2="0.773" xlink:href="#linear-gradient"/>
    <linearGradient id="linear-gradient-13" x1="-0.001" y1="0.779" x2="0.901" y2="0.227" xlink:href="#linear-gradient"/>
    <linearGradient id="linear-gradient-14" x1="82.465" y1="48.235" x2="81.411" y2="48.194" xlink:href="#linear-gradient"/>
  </defs>
  <g id="Group_33" data-name="Group 33" transform="translate(0)">
    <g id="Group_31" data-name="Group 31">
      <rect id="Rectangle_8" data-name="Rectangle 8" width="4.712" height="4.712" transform="translate(47.847 64.796) rotate(-45)" fill="#43a284"/>
      <path id="Path_124" data-name="Path 124" d="M425.361,329.866l3.332-3.332-2.2-2.2,2.2-2.2-3.332-3.332-3.332,3.332,2.2,2.2-2.2,2.2Z" transform="translate(-387.879 -274.278)" fill="#43a284"/>
      <path id="Path_125" data-name="Path 125" d="M408.7,355.4a10.3,10.3,0,0,0,3.7,6.383,17.82,17.82,0,0,0,5.67,3.371c3.407.949,5.88-1.847,6.547-4.9a9.211,9.211,0,0,0,.165-1.055h0s.018-.158.029-.428a10.584,10.584,0,0,0-.562-3.889A12.049,12.049,0,0,0,422.894,352a14,14,0,0,0-1.1-1.519l.018.036a16.8,16.8,0,0,0-4.436-3.885c-.01-.005-.015-.015-.021-.015-.19-.123-.344-.226-.462-.3a.507.507,0,0,0-.318-.1c.067-.056.139-.123.21-.195a11.717,11.717,0,0,1,6.773-3.161,8.591,8.591,0,0,1,2.109.062c.21.041.421.1.631.154a8.6,8.6,0,0,1,1.74.37,1.559,1.559,0,0,0-.2-.123,11.709,11.709,0,0,0-7.405-2.8h-.021c-.234.007-.47.021-.71.048l-.048.006c-.2.023-.4.056-.607.094-.063.012-.125.023-.187.036-.2.041-.395.089-.594.145-.059.016-.116.036-.174.053q-.237.072-.476.16c-.041.015-.082.026-.122.041l-.055.024-.068.025c-.193.076-.374.164-.559.248-.114.052-.23.1-.345.153s-.2.109-.3.163a14.4,14.4,0,0,0-2.513,1.655c-.221.236-.436.344-.616.544a14.415,14.415,0,0,0-2.971,3.8c-.083.147-.126.233-.126.233h.005A12.2,12.2,0,0,0,408.7,355.4Zm13.7,4.783.006.029c-.025.065-.043.116-.049.135C422.36,360.329,422.376,360.269,422.4,360.187Zm-1.228-3.459a8.25,8.25,0,0,1-.292,1.657,6.25,6.25,0,0,1-3.4,4.29c-.021.005-.036.015-.046.015a.635.635,0,0,1-.087.026.126.126,0,0,1-.082.031.075.075,0,0,1-.015.01c-.067.026-.133.046-.2.067a2.272,2.272,0,0,1-.251.067,3.429,3.429,0,0,1-.375.077,3.93,3.93,0,0,1-.8.046,2.219,2.219,0,0,1-.41-.036,3.818,3.818,0,0,1-.411-.072c-.118-.118-.241-.246-.375-.39a10.284,10.284,0,0,1-2.15-7.81,11.887,11.887,0,0,1,3.833-8.066C419.713,349.6,421.4,354.065,421.17,356.728Zm-11.453,1.56c-.051-.015-.1-.092-.154-.205C409.676,358.2,409.764,358.3,409.717,358.288Z" transform="translate(-381.321 -284.855)" fill="#43a284"/>
      <path id="Path_126" data-name="Path 126" d="M430.362,307.185c0-.009-.005-.023-.007-.033-.829-7.642-6.845-11.985-11.488-16-5.629-4.875-11.258-9.754-16.656-15.024a63.517,63.517,0,0,1-6.265-6.855c-.4-.508-.775-1.026-1.144-1.56a33.186,33.186,0,0,0,2.489-6.45,30.987,30.987,0,0,0,.826-3.92,36.039,36.039,0,0,0,.015-10.427.175.175,0,0,0-.005-.051.031.031,0,0,0-.005-.021,30,30,0,0,0-4.387-13.464c-.277-.457-.559-.9-.852-1.344-.3.446-.6.893-.862,1.35a30.189,30.189,0,0,0-4.336,12.813,35.454,35.454,0,0,0-.1,11.145,32.816,32.816,0,0,0,2.3,8.184c.318.749.662,1.473,1.021,2.186a46.67,46.67,0,0,1-4.295,5.239c-1.006,1.088-2.058,2.135-3.125,3.176-5.4,5.27-11.027,10.15-16.656,15.024-1.627,1.411-3.433,2.863-5.121,4.49a23.494,23.494,0,0,0-5.906,10.16,9.972,9.972,0,0,0-.128,4.464,7.146,7.146,0,0,0,1.078,2.653c.026.046.056.092.087.139-.01-.416,0-.744,0-.8a14.849,14.849,0,0,1,.369-2.8,18.16,18.16,0,0,1,4.639-8.333,90.019,90.019,0,0,1,7.384-6.681c2.678-2.324,5.357-4.649,8-7.014,4.279-3.838,8.882-7.753,12.7-12.423a42.16,42.16,0,0,0,2.909-3.941c.544.836,1.119,1.642,1.714,2.437,4.038,5.347,9.17,9.683,13.911,13.926,2.643,2.365,5.316,4.69,7.994,7.014a88.357,88.357,0,0,1,7.384,6.681,18.076,18.076,0,0,1,4.644,8.333c.036.169.072.334.1.5.436,2.684.328,4.387-.729,5.68-.041.046-.082.092-.123.133a8.392,8.392,0,0,1-1.673,1.283,11.579,11.579,0,0,1-6.912,1.437,32.537,32.537,0,0,0,.965-5.167c0,.005-.005.005-.005.01.467-4.161-.446-8.4-3.366-11.017-2.324-2.083-5.962-2.9-8.179-.144-.071.088-.161.2-.262.336a14.052,14.052,0,0,0-2.688,7.587,10.209,10.209,0,0,0,.584,4.4c.1.28.167.437.167.437h0q.136.32.3.63a12.97,12.97,0,0,0,10.237,6.783h0a11.085,11.085,0,0,1-1.632,1.607,10.372,10.372,0,0,1-3.564,1.842,13.03,13.03,0,0,1-3.038.507,14.149,14.149,0,0,1-3.021-.146,15.541,15.541,0,0,1-1.962-.464,7.088,7.088,0,0,0,.4-1.645c0-.021.01-.045.012-.066.3-3.279-.683-5.586-2.609-8.26a6.026,6.026,0,0,0-.631-.739,4,4,0,0,0-3.1-1.232,5.8,5.8,0,0,0-3.428,1.5,12.023,12.023,0,0,0-1.488,1.6,10.518,10.518,0,0,0-1.488-1.6c-1.954-1.678-4.553-2.212-6.516-.267a13.952,13.952,0,0,0-2.918,5.965c-.077.284-.146.569-.206.835A6.837,6.837,0,0,0,382,325.7a15.836,15.836,0,0,0,3.151-1.36c-.181-.232-.353-.465-.525-.7a7.761,7.761,0,0,1-1.11-2.014,7.076,7.076,0,0,1-.3-1.17,5.617,5.617,0,0,1,.009-1.42c1.644-1.73,3.856-1.558,5.69-.413a6.767,6.767,0,0,1,.869.637q.349.309.672.645h0a22.292,22.292,0,0,1-3.417,3.2c-.01,0-.01,0-.015.01a18.792,18.792,0,0,1-1.868,1.221,15.88,15.88,0,0,1-3.151,1.36,15.385,15.385,0,0,1-1.965.462,13.992,13.992,0,0,1-6.06-.359,10.4,10.4,0,0,1-3.561-1.842,11.026,11.026,0,0,1-1.637-1.611c.272-.032.544-.072.816-.12l.155-.027.007,0a12.787,12.787,0,0,0,9.264-6.627,10.263,10.263,0,0,0,.723-7.343,17.789,17.789,0,0,0-2.622-6.055c-2.217-2.761-5.855-1.934-8.179.149a10.292,10.292,0,0,0-3,5.132c-.022.08-.049.152-.069.234-.007.029-.011.055-.018.083-.016.069-.03.138-.045.207q-.1.433-.156.824c-.011.066-.022.131-.032.2-.015.109-.025.212-.036.317-.029.239-.063.477-.081.719.01.184.024.367.041.551a5.381,5.381,0,0,0,.26,1.431c.029.108.054.215.089.322,0-.023,0-.045.007-.068a5.9,5.9,0,0,0,1.153,1.715l.015.108a11.655,11.655,0,0,1,2.6-6.891,8.086,8.086,0,0,1,1.2-1.17,6.257,6.257,0,0,1,5.27-1.5c.015.01.036.01.041.015.026.01.051.01.087.026a.159.159,0,0,1,.087.026h.015c.072.021.139.046.2.062a1.7,1.7,0,0,1,.241.1,3.38,3.38,0,0,1,.354.154,3.953,3.953,0,0,1,.667.431,1.914,1.914,0,0,1,.313.267,4.015,4.015,0,0,1,.292.3c.026.164.051.339.077.534a10.266,10.266,0,0,1-2.822,7.594,13.188,13.188,0,0,1-8.728,4.418,13.943,13.943,0,0,1-1.6.1,11.318,11.318,0,0,1-5.747-1.493,8.42,8.42,0,0,1-1.678-1.283c-.149-.154-.287-.328-.421-.493a8.632,8.632,0,0,1-1.067-1.144c0,.005.005.01.005.015a13.71,13.71,0,0,0,2.1,4.4l-.066-.043a9.314,9.314,0,0,0,1.909,1.982l.059.045c.153.116.309.227.468.332.044.029.084.062.128.091a7.648,7.648,0,0,0,.9.491c.132.063.267.12.4.176l.109.045a8.983,8.983,0,0,0,1.044.354,13.9,13.9,0,0,0,4.439.4h.005c1.719,3.669,4.4,6.537,7.876,7.456a14.079,14.079,0,0,0,8.595-.472,16.923,16.923,0,0,0,2.849-1.4,16.6,16.6,0,0,1-2.847,1.4c1.007,1.248,2.014,2.479,2.952,3.813.095.138.189.276.276.413a28.242,28.242,0,0,1,4.106,8.5,2.9,2.9,0,0,0,.163.611,23.946,23.946,0,0,1,.766,5.285,19.847,19.847,0,0,1,1.17-6.541,19.373,19.373,0,0,0-.715-3.9,19.31,19.31,0,0,1,.716,3.9,21.041,21.041,0,0,1,1.437-3.125,31.481,31.481,0,0,1,2.083-3.777c.3-.477.611-.929.919-1.37.934-1.334,1.94-2.566,2.945-3.813l.107-.135-.107.134a14.675,14.675,0,0,0,5.81.921,13.557,13.557,0,0,0,2.8-.447c3.469-.921,6.146-3.787,7.876-7.454h0v0a13.837,13.837,0,0,0,4.433-.4,9.269,9.269,0,0,0,6.132-5.444c.241-.534.472-1.072.693-1.611.005-.01.01-.015.01-.021s.005-.015.005-.021l.108-.262a.073.073,0,0,0,.01-.031c.046-.139.1-.318.169-.529.035-.109.075-.233.116-.358A12.213,12.213,0,0,0,430.362,307.185Zm-39.383-46.744a35.857,35.857,0,0,1-2.006-16.153v-.015a14.654,14.654,0,0,1,.718-3.068,31.281,31.281,0,0,1,2.909-6.091c.108-.118.19-.21.246-.262.082.082.236.246.431.472a31.069,31.069,0,0,1,3.171,7.066c.108.631.2,1.262.272,1.9a35.665,35.665,0,0,1-1.781,15.517c-.072.215-.149.426-.226.636a31.345,31.345,0,0,1-1.868,4.11A32.028,32.028,0,0,1,390.979,260.441ZM371.2,319.527c-.041.031-.1.071-.158.11l-.056,0c.081-.044.15-.085.2-.121C371.311,319.435,371.311,319.44,371.2,319.527ZM391.62,321.3q-.433-.563-.9-1.086Q391.187,320.736,391.62,321.3Zm1.227,15.308a24.884,24.884,0,0,0-1.437-3.337,34.852,34.852,0,0,0-2.849-4.622c-.241-.327-.481-.654-.739-.972h0c.267-.169.523-.354.78-.549a14.762,14.762,0,0,0,1.334-1.1,21.633,21.633,0,0,0,2.16-2.176c.262-.292.508-.605.749-.924-.129-.167-.255-.338-.383-.508.128.17.255.341.384.508.241.319.5.629.749.921.319.37.646.723.99,1.067a20.734,20.734,0,0,0,2.5,2.212c.258.2.516.379.783.551.878-1.128,1.791-2.2,2.669-3.331a18.308,18.308,0,0,1-1.868-1.222,15.288,15.288,0,0,1-1.438-1.2,22.1,22.1,0,0,1-2-2.014c-.189-.215-.379-.439-.559-.654-.06-.073-.115-.151-.174-.226.06.075.115.154.177.228.18.21.369.436.559.652a8.989,8.989,0,0,1,.677-.647,6.736,6.736,0,0,1,1.7-1.072,4.739,4.739,0,0,1,.872-.3,3.947,3.947,0,0,1,3.982,1.155,6.482,6.482,0,0,1,.01,1.411,7.272,7.272,0,0,1-1.411,3.187c-.18.231-.354.467-.534.7-.877,1.129-1.791,2.2-2.668,3.33-.251.318-.493.647-.734.975-.611.842-1.2,1.709-1.739,2.622A27.716,27.716,0,0,0,392.847,336.608Zm10.4-9.94a9.332,9.332,0,0,1-.592.956A9.439,9.439,0,0,0,403.245,326.669Zm4.061-20.852-.005.01h0S407.3,305.819,407.306,305.817Zm9.929,16.577c.021,0,.04.006.061.007.044.006.084.008.126.011C417.361,322.407,417.3,322.4,417.236,322.394ZM410,314.037a10.27,10.27,0,0,1-2.832-7.584c.01-.169.031-.3.052-.463a.3.3,0,0,1,.04-.073l0,0a4.472,4.472,0,0,1,1.015-.845c.047-.028.093-.055.14-.081l-.016.01c.1-.056.2-.109.3-.156h0l.027-.014-.026.013c.09-.042.184-.088.262-.116s.164-.062.241-.087.159-.046.226-.067c2.34-.626,4.9.652,6.594,2.637,2.525,2.95,3.058,7.184,2.345,11.2A14.331,14.331,0,0,1,410,314.037Zm19.456-.415c.033-.164.062-.34.1-.531A2.75,2.75,0,0,1,429.456,313.622Zm-8.479-17.8,0,.01-.07-.063Z" transform="translate(-355.476 -232.04)" fill="#43a284"/>
    </g>
    <g id="Group_32" data-name="Group 32" transform="translate(13.06 27.767)">
      <path id="Path_127" data-name="Path 127" d="M422.8,406.3c-.241.319-.491.629-.749.921a21.5,21.5,0,0,1-2.161,2.178l-2.9-2.909a22.147,22.147,0,0,0,3.417-3.2A37.487,37.487,0,0,1,422.8,406.3Z" transform="translate(-398.483 -343.184)" fill="url(#linear-gradient)"/>
      <path id="Path_128" data-name="Path 128" d="M418.892,424.016l-.732,1.541-3.013-1.171c-.086-.138-.181-.275-.276-.413-.938-1.334-1.945-2.565-2.952-3.813a16.779,16.779,0,0,0,3.382-1.738c.258.318.5.646.74.972A34.86,34.86,0,0,1,418.892,424.016Z" transform="translate(-396.017 -350.551)" fill="url(#linear-gradient-2)"/>
      <path id="Path_129" data-name="Path 129" d="M433.954,395.445a6.234,6.234,0,0,0-2.573,1.369c-.241.207-.465.422-.68.645-.189-.215-.379-.439-.559-.654-.637-.775-1.214-1.61-1.833-2.393a11.5,11.5,0,0,1,1.489-1.6,5.791,5.791,0,0,1,3.426-1.5C433.335,392.527,433.593,394.945,433.954,395.445Z" transform="translate(-403.996 -337.353)" fill="url(#linear-gradient-3)"/>
      <path id="Path_130" data-name="Path 130" d="M409.9,408.719a15.827,15.827,0,0,1-3.151,1.36,6.837,6.837,0,0,1-.284-3.907c.06-.267.129-.551.206-.835l1.593.672a7.751,7.751,0,0,0,1.11,2.014C409.548,408.254,409.72,408.487,409.9,408.719Z" transform="translate(-393.284 -344.18)" fill="url(#linear-gradient-4)"/>
      <path id="Path_131" data-name="Path 131" d="M437.653,409.634c-.878,1.127-1.791,2.2-2.669,3.331-.267-.172-.525-.353-.783-.551a20.736,20.736,0,0,1-2.5-2.212l2.651-2.987a15.3,15.3,0,0,0,1.438,1.2A18.3,18.3,0,0,0,437.653,409.634Z" transform="translate(-405.646 -345.095)" fill="url(#linear-gradient-5)"/>
      <path id="Path_132" data-name="Path 132" d="M452.117,415.19l-.267,2.884-1.342,1.136a14.674,14.674,0,0,1-5.81-.921c.361-.456.732-.912,1.093-1.377a8.867,8.867,0,0,0,1.343-2.333,15.448,15.448,0,0,0,1.963.465A14.155,14.155,0,0,0,452.117,415.19Z" transform="translate(-411.975 -348.681)" fill="url(#linear-gradient-6)"/>
      <path id="Path_133" data-name="Path 133" d="M432.853,428.754a31.94,31.94,0,0,0-2.083,3.779,20.977,20.977,0,0,0-1.438,3.125,19.6,19.6,0,0,0-1.024-4.889,27.414,27.414,0,0,1,2.556-5.337Z" transform="translate(-403.996 -353.965)" fill="url(#linear-gradient-7)"/>
      <path id="Path_134" data-name="Path 134" d="M441.335,396.973a3.951,3.951,0,0,0-3.985-1.153,4.685,4.685,0,0,0-.869.292c-.775-1.575-1.575-3.521-1.007-3.744a3.4,3.4,0,0,1,3.151.215A6.639,6.639,0,0,1,441.335,396.973Z" transform="translate(-407.391 -337.728)" fill="url(#linear-gradient-8)"/>
      <path id="Path_135" data-name="Path 135" d="M415.243,396.5c-1.833-1.145-4.045-1.317-5.69.413.172-1.274,1.308-3.8,2.6-4.433a3.761,3.761,0,0,1,3.331-.207C416.1,392.6,415.493,395.431,415.243,396.5Z" transform="translate(-394.865 -337.676)" fill="url(#linear-gradient-9)"/>
      <path id="Path_136" data-name="Path 136" d="M390.839,371.361a3.131,3.131,0,0,0-.292-.3,1.8,1.8,0,0,0-.31-.267,3.979,3.979,0,0,0-.671-.43c-.121-.061-.241-.112-.353-.155a2.069,2.069,0,0,0-.241-.095c-.06-.017-.129-.043-.2-.06h-.017a.144.144,0,0,0-.086-.026.451.451,0,0,0-.086-.026c-.008-.009-.026-.009-.043-.017a6.251,6.251,0,0,0-5.267,1.5c-1.558-.964-3.357-2.479-1.661-3.538,1.937-1.2,3.675-1.808,5.509-1.317C389.712,367.315,390.555,370.293,390.839,371.361Z" transform="translate(-380.927 -325.25)" fill="url(#linear-gradient-10)"/>
      <path id="Path_137" data-name="Path 137" d="M456.394,371.361a3.127,3.127,0,0,1,.292-.3,1.816,1.816,0,0,1,.31-.267,3.98,3.98,0,0,1,.671-.43c.121-.061.241-.112.353-.155a2.073,2.073,0,0,1,.241-.095c.06-.017.129-.043.2-.06h.017a.144.144,0,0,1,.086-.026.452.452,0,0,1,.086-.026c.008-.009.026-.009.043-.017a6.251,6.251,0,0,1,5.267,1.5c1.558-.964,3.357-2.479,1.661-3.538-1.937-1.2-3.675-1.808-5.509-1.317C457.521,367.315,456.678,370.293,456.394,371.361Z" transform="translate(-417.67 -325.25)" fill="url(#linear-gradient-11)"/>
      <path id="Path_138" data-name="Path 138" d="M422.387,304.926a42.225,42.225,0,0,1-2.909,3.942h-2.22s-.594-1.076-1.11-2.057a46.912,46.912,0,0,0,4.295-5.242A35.97,35.97,0,0,0,422.387,304.926Z" transform="translate(-398.075 -293.659)" fill="url(#linear-gradient-12)"/>
      <path id="Path_139" data-name="Path 139" d="M432.75,287.616a33.208,33.208,0,0,1-2.488,6.447,34.247,34.247,0,0,1-1.954-3.168,31.984,31.984,0,0,0,1.868-4.105c.077-.216.155-.422.224-.637C431.122,286.592,432.035,287.16,432.75,287.616Z" transform="translate(-403.996 -286.153)" fill="url(#linear-gradient-13)"/>
      <path id="Path_140" data-name="Path 140" d="M420.758,379.814a3.23,3.23,0,0,0,.414.072,1.8,1.8,0,0,0,.407.034,3.98,3.98,0,0,0,.8-.046c.133-.022.261-.051.377-.082a1.965,1.965,0,0,0,.251-.065c.059-.022.129-.041.2-.068l.014-.01a.149.149,0,0,0,.085-.03.465.465,0,0,0,.085-.03c.012,0,.026-.008.045-.011a6.252,6.252,0,0,0,3.384-4.306c1.827-.135,4.173.035,3.423,1.888-.86,2.113-1.913,3.621-3.686,4.3C424.046,382.426,421.614,380.511,420.758,379.814Z" transform="translate(-400.32 -329.526)" fill="url(#linear-gradient-14)"/>
    </g>
  </g>
</svg>
