<svg xmlns="http://www.w3.org/2000/svg" width="144.478" height="40.647" viewBox="0 0 144.478 40.647">
  <g id="Group_115" data-name="Group 115" transform="translate(-214.071 -299.527)">
    <g id="Group_44" data-name="Group 44" transform="translate(325.643 315.306)">
      <g id="Group_41" data-name="Group 41" transform="translate(0 1.528)">
        <path id="f0_234" data-name="f0 234" d="M1422.79,499.515h0q.312,0,.312.625h0q0,1.606-.847,1.606h0q-3.458,0-4.529-4.818h0a4.752,4.752,0,0,1-.424,1.941h0a15.954,15.954,0,0,1-4.618,4.462h0q-3.636,2.565-5.734,2.565h0a2.878,2.878,0,0,1-2.365-.981h0a2.845,2.845,0,0,1-.669-1.919h0a10.488,10.488,0,0,1,.58-3.5h0q.491-1.428.848-1.428h0q.112,0,.111.089h0q0,.045-.4,1.127a5.825,5.825,0,0,0-.4,2.019h0a2.211,2.211,0,0,0,.58,1.785h0a3.075,3.075,0,0,0,1.829.4h0q2.543,0,6.715-3.28h0q3.815-2.989,3.815-3.837h0a14.164,14.164,0,0,0-.959-3.391h0a54.393,54.393,0,0,0-2.409-5.533h0a3.778,3.778,0,0,1-.424-1h0q0-2.342.179-2.343h0q.111,0,.468.491h0a22.748,22.748,0,0,1,3.815,8.522h0q.178,1.182.647,3.525h0A3.6,3.6,0,0,0,1422.79,499.515Z" transform="translate(-1403.916 -484.099)" fill="#d3b063"/>
      </g>
      <g id="Group_42" data-name="Group 42" transform="translate(18.026 9.917)">
        <path id="f0_262" data-name="f0 262" d="M1604.074,585.27h0a3.818,3.818,0,0,1-.558,1.985h0a1.837,1.837,0,0,1-1.606,1.093h0a3.568,3.568,0,0,1-1.472-.5,5.4,5.4,0,0,1-1.54-1.149h0a6.194,6.194,0,0,1-1.517-3.347h0a1.191,1.191,0,0,1-.58-.022h0a1.346,1.346,0,0,1,.022-.535h0q-.245.022-.357.022h0q-.312,0-.312-.625h0q0-1.606.848-1.606h0a5.492,5.492,0,0,0,.826-.111h0a21.149,21.149,0,0,1,2.164-4.6h0a11.646,11.646,0,0,0,.781-1.606h0q.312-.714.379-.714h0q.023.045.111,1.049t.223,2.632h0a5.32,5.32,0,0,1-.981,3.3h0a7.323,7.323,0,0,1-.781,1.071h0a9.437,9.437,0,0,1,2.633,1h0A3.214,3.214,0,0,1,1604.074,585.27Zm-3.414-7.005h0q0-.134-.2-1.852h0a26.372,26.372,0,0,0-2.052,3.948h0Q1600.66,579.76,1600.66,578.265Zm2.275,7.964h0a4.218,4.218,0,0,0-1.9-1.851h0a7.286,7.286,0,0,0-2.142-.8h0a4.7,4.7,0,0,0,1.763,1.907A3.794,3.794,0,0,0,1602.936,586.229Z" transform="translate(-1596.154 -573.558)" fill="#d3b063"/>
      </g>
      <g id="Group_43" data-name="Group 43" transform="translate(18.918 0)">
        <path id="f0_1757" data-name="f0 1757" d="M1619.658,481.557h0a3.65,3.65,0,0,1-.736,2.61h0a10.579,10.579,0,0,1-4.016,1.919h0a36.68,36.68,0,0,1-8.924,1.406h0q-.312,0-.312-.58h0q0-1.606.87-1.606h0a41.919,41.919,0,0,0,8.857-1.338h0q3.48-.959,3.48-1.718h0q0-1.049-2.432-.96h0l-1.629.045h0a1.906,1.906,0,0,1-1.963-2.164h0a3.845,3.845,0,0,1,.915-2.544h0a2.3,2.3,0,0,1,1.718-.915h0a3.532,3.532,0,0,1,2.61,1.74h0A6.636,6.636,0,0,1,1619.658,481.557Zm-2.967-2.61h0a1.978,1.978,0,0,0-1.473-.915h0a1.065,1.065,0,0,0-.68.168q-.368.212-.368.479h0Q1614.17,479.281,1616.691,478.946Zm-4.306-11.143,2.32,1.361-1.115,2.008-2.32-1.361Z" transform="translate(-1605.67 -467.803)" fill="#d3b063"/>
      </g>
    </g>
    <g id="Group_46" data-name="Group 46" transform="translate(320.448 308.767)">
      <g id="Group_45" data-name="Group 45" transform="translate(0 0)">
        <path id="f0_1280" data-name="f0 1280" d="M1361.163,403.868h0q0,2.655-3.19,7.072h0a6.04,6.04,0,0,1,1.829,2.008h0a5.165,5.165,0,0,1,.268,1.829h0a4.839,4.839,0,0,1-.557,2.521h0a5.529,5.529,0,0,1-1.774,1.506,4.417,4.417,0,0,1-2.109.77h0q-1.405,0-1.405-2.365h0a9.818,9.818,0,0,1,1.874-5.22h0q-.379-.313-1-.87h0a22.279,22.279,0,0,1-2.1,2.7h0a15.245,15.245,0,0,1-2.655,2.521h0a4.7,4.7,0,0,1-1.74.915h0a.129.129,0,0,1-.09-.044h0q-.044-.09.959-1h0a30.032,30.032,0,0,0,4.885-5.711h0q-.647-.914-1.785-2.387h0q-.268-.089-.268-.223h0a13.3,13.3,0,0,1-.045-1.361h0a3.663,3.663,0,0,1,.089-1.2h0q.089-.044,1,.647h0a9.445,9.445,0,0,1,1.963,1.606h0q-.179.223-1.138-.045h0a8.382,8.382,0,0,0,1.182,1.272h0a26.854,26.854,0,0,1,2.968-4.529h0q1.428-1.583,2.052-1.584h0Q1361.163,402.685,1361.163,403.868Zm-.826,1.495h0q0-.357-.536-.357h0q-.558,0-1.919,1.651h0a12.161,12.161,0,0,0-1.829,2.633h0q.58.557,1.138,1.071h0A39,39,0,0,0,1360.338,405.362Zm-1,9.972h0q0-.558-2.5-2.7h0q-1.785,2.655-1.785,3.569h0q0,1.049.915,1.049h0a4.546,4.546,0,0,0,2.019-.825Q1359.334,415.6,1359.334,415.334Zm-3.245-17.267,2.321,1.361-1.116,2.008-2.275-1.339-.937,1.673-2.32-1.361,1.115-2.008,2.276,1.339Z" transform="translate(-1348.512 -398.067)" fill="#d3b063"/>
      </g>
    </g>
    <g id="Group_50" data-name="Group 50" transform="translate(289.718 324.128)">
      <g id="Group_47" data-name="Group 47" transform="translate(0 0.59)">
        <path id="f0_1299" data-name="f0 1299" d="M1046.169,577.193h0q.312,0,.312.625h0q0,1.606-.848,1.606h0a2.156,2.156,0,0,1-1.874-.959h0a2.524,2.524,0,0,1-.513-1.495h0q0-.245-.178-.245h0l-1.517.692h0q-1.919.892-3.726,1.584h0a25.847,25.847,0,0,1-9.08,1.762h0q-4.328,0-6.358-1.584h0a3.728,3.728,0,0,1-1.584-3.1h0a6.381,6.381,0,0,1,.6-2.633h0q.58-1.271.892-1.093h0a.12.12,0,0,1,.089.134h0a6.64,6.64,0,0,1-.3.7,3.071,3.071,0,0,0-.3,1.283h0a3.217,3.217,0,0,0,1.517,2.722h0q1.986,1.383,6.09,1.383h0a29.474,29.474,0,0,0,10.285-2.276h0q1.115-.424,2.856-1.182h0a6.872,6.872,0,0,1,1.339-.513h0q.223,0,.134.245h0q-.156.379-.156.4h0a1.792,1.792,0,0,0,.6,1.271h0A2.373,2.373,0,0,0,1046.169,577.193Zm-4.731-9.025,2.32,1.361-1.115,2.008-2.276-1.339-.937,1.674-2.321-1.361,1.116-2.008,2.275,1.338Z" transform="translate(-1020.803 -568.168)" fill="#d3b063"/>
      </g>
      <g id="Group_48" data-name="Group 48" transform="translate(24.496 0)">
        <path id="f0_815" data-name="f0 815" d="M1288.974,571.513h0q.335,0,.335.58h0q0,1.606-.826,1.607h0q-2.186,0-2.833-2.834h0q-.089.268-.469,1.093h0a2.815,2.815,0,0,1-2.833,1.74h0q-.312,0-.312-.58h0q0-1.606.87-1.606h0a2.5,2.5,0,0,0,1.316-.379h0q.826-.4.826-1h0a16.944,16.944,0,0,0-.658-3.737q-.658-2.554-.658-2.465h0a9.942,9.942,0,0,1,.223-1.093q.223-.959.313-.959h0q.29,0,.825,1.673h0a16.5,16.5,0,0,1,.714,2.432q.156.87.536,2.521h0Q1287.055,571.513,1288.974,571.513Z" transform="translate(-1282.036 -561.876)" fill="#d3b063"/>
      </g>
      <g id="Group_49" data-name="Group 49" transform="translate(30.586 5.466)">
        <path id="f0_853" data-name="f0 853" d="M1350.689,623.11h0q0,3.414-3.391,3.414h0q-.312,0-.312-.58h0q0-1.606.87-1.606h0a3.1,3.1,0,0,0,1.405-.312h0q.6-.245.6-.469h0a2.195,2.195,0,0,0-.323-.814l-.323-.591h0a9.438,9.438,0,0,1,.19-1.07q.19-.915.279-.915h0q.179,0,.536.736h0A4.972,4.972,0,0,1,1350.689,623.11Z" transform="translate(-1346.986 -620.165)" fill="#d3b063"/>
      </g>
    </g>
    <g id="Group_54" data-name="Group 54" transform="translate(273.119 310.116)">
      <g id="Group_51" data-name="Group 51" transform="translate(0 0)">
        <path id="Path_153" data-name="Path 153" d="M862.656,427.867h0q.312,0,.312.625h0q0,1.606-.847,1.606h0q-3.458,0-4.529-4.818h0a4.752,4.752,0,0,1-.424,1.941h0a15.95,15.95,0,0,1-4.618,4.462h0q-3.636,2.566-5.734,2.565h0a2.878,2.878,0,0,1-2.365-.981h0a2.846,2.846,0,0,1-.669-1.918h0a10.486,10.486,0,0,1,.58-3.5h0q.491-1.428.848-1.428h0q.111,0,.112.089h0q0,.045-.4,1.127a5.826,5.826,0,0,0-.4,2.019h0a2.211,2.211,0,0,0,.58,1.785h0a3.075,3.075,0,0,0,1.829.4h0q2.543,0,6.715-3.28h0q3.815-2.989,3.815-3.837h0a14.161,14.161,0,0,0-.959-3.391h0a54.379,54.379,0,0,0-2.409-5.533h0a3.776,3.776,0,0,1-.424-1h0q0-2.343.179-2.342h0q.112,0,.468.491h0a22.749,22.749,0,0,1,3.815,8.522h0q.178,1.182.647,3.525h0A3.6,3.6,0,0,0,862.656,427.867Z" transform="translate(-843.782 -412.451)" fill="#d3b063"/>
      </g>
      <g id="Group_52" data-name="Group 52" transform="translate(18.026 8.388)">
        <path id="Path_154" data-name="Path 154" d="M1043.94,513.621h0a3.819,3.819,0,0,1-.558,1.985h0a1.837,1.837,0,0,1-1.607,1.093h0a3.566,3.566,0,0,1-1.472-.5,5.4,5.4,0,0,1-1.54-1.149h0a6.2,6.2,0,0,1-1.517-3.347h0a1.192,1.192,0,0,1-.58-.022h0a1.344,1.344,0,0,1,.022-.535h0q-.245.022-.357.022h0q-.312,0-.312-.625h0q0-1.606.848-1.606h0a5.5,5.5,0,0,0,.826-.112h0a21.138,21.138,0,0,1,2.164-4.6h0a11.645,11.645,0,0,0,.781-1.606h0q.312-.714.379-.714h0q.023.045.112,1.049t.223,2.632h0a5.32,5.32,0,0,1-.981,3.3h0a7.324,7.324,0,0,1-.781,1.071h0a9.434,9.434,0,0,1,2.633,1h0A3.214,3.214,0,0,1,1043.94,513.621Zm-3.413-7.005h0q0-.134-.2-1.852h0a26.345,26.345,0,0,0-2.052,3.948h0Q1040.526,508.111,1040.526,506.616Zm2.275,7.964h0a4.218,4.218,0,0,0-1.9-1.851h0a7.286,7.286,0,0,0-2.142-.8h0a4.7,4.7,0,0,0,1.763,1.907A3.793,3.793,0,0,0,1042.8,514.58Z" transform="translate(-1036.02 -501.909)" fill="#d3b063"/>
      </g>
      <g id="Group_53" data-name="Group 53" transform="translate(18.918 0.156)">
        <path id="Path_155" data-name="Path 155" d="M1059.524,426.185h0a3.651,3.651,0,0,1-.736,2.61h0a10.581,10.581,0,0,1-4.016,1.919h0a36.679,36.679,0,0,1-8.924,1.406h0q-.312,0-.312-.58h0q0-1.606.87-1.606h0a41.918,41.918,0,0,0,8.857-1.338h0q3.48-.959,3.48-1.718h0q0-1.049-2.432-.959h0l-1.629.045h0a1.905,1.905,0,0,1-1.963-2.164h0a3.844,3.844,0,0,1,.915-2.544h0a2.3,2.3,0,0,1,1.718-.915h0a3.532,3.532,0,0,1,2.61,1.74h0A6.635,6.635,0,0,1,1059.524,426.185Zm-2.967-2.61h0a1.978,1.978,0,0,0-1.473-.915h0a1.066,1.066,0,0,0-.68.168q-.368.212-.368.479h0Q1054.036,423.91,1056.557,423.575Zm-4.306-9.459,2.32,1.361-1.115,2.008-2.32-1.361Z" transform="translate(-1045.536 -414.116)" fill="#d3b063"/>
      </g>
    </g>
    <g id="Group_56" data-name="Group 56" transform="translate(260.285 315.306)">
      <g id="Group_55" data-name="Group 55" transform="translate(0 0)">
        <path id="f1_1" data-name="f1 1" d="M708.746,472.463h0a.616.616,0,0,1-.274.411h0a.073.073,0,0,0-.046-.069q-.046-.023-.046-.114h0a4.239,4.239,0,0,0,.091-.822h0a4.029,4.029,0,0,0-1.553-3.061h0a1.585,1.585,0,0,1,.206-.594q.206-.411.343-.411h0a2.28,2.28,0,0,1,.64.594h0a4.862,4.862,0,0,1,.868,2.787h0A3.534,3.534,0,0,1,708.746,472.463Z" transform="translate(-706.918 -467.803)" fill="#d3b063"/>
      </g>
    </g>
    <g id="Group_58" data-name="Group 58" transform="translate(317.289 306.941)">
      <g id="Group_57" data-name="Group 57" transform="translate(0 0)">
        <path id="f1_12" data-name="f1 12" d="M1317.527,388.826h0q0,1.645-1.005,1.645h0q-.365,0-.685-.548h0a2.425,2.425,0,0,1-.411-1.416h0a8.69,8.69,0,0,1,.64-3.153h0a5.228,5.228,0,0,0,.228-1.645h0a5.18,5.18,0,0,0-1.279-3.609h0a.5.5,0,0,1-.183-.32h0a3.281,3.281,0,0,1,.16-.663q.16-.525.251-.525h0q.137,0,.457.548h0a8.472,8.472,0,0,1,1.142,4.249h0a6.526,6.526,0,0,1-.228,1.965h0a8,8,0,0,0-.685,2.924h0q0,1.1.64,1.1h0q.64,0,.64-.868h0q0-.366.183-.366h0Q1317.527,388.141,1317.527,388.826Z" transform="translate(-1314.831 -378.592)" fill="#d3b063"/>
      </g>
    </g>
    <g id="Group_60" data-name="Group 60" transform="translate(236.106 307.272)">
      <g id="Group_59" data-name="Group 59" transform="translate(0 0)">
        <path id="f1_115" data-name="f1 115" d="M455.916,382.125h.228a2.03,2.03,0,0,1,.64.274h0a1.075,1.075,0,0,1,.457.594h0v.137a1.278,1.278,0,0,1-.023.251q-.023.114-.069.3h0a1.776,1.776,0,0,0-.091.228q-.046.137-.137.137h0q-.091,0-.183-.228h0a2.441,2.441,0,0,0-.3-.343.524.524,0,0,0-.48-.16h0a.477.477,0,0,0-.343.32q-.114.274-.206.5h0a5.426,5.426,0,0,0-.228,1.165q-.046.571-.137,1.211h0q-.046.274-.091.594a2.4,2.4,0,0,1-.137.548h0a2.722,2.722,0,0,1-.388.754,3.663,3.663,0,0,1-.571.617h0a3.865,3.865,0,0,1-.685.548l-.731.457h0a8.08,8.08,0,0,1-1.576.8q-.8.3-1.8.617h0a13.511,13.511,0,0,1,2.33-1.622,13.506,13.506,0,0,0,2.33-1.622h0a2.348,2.348,0,0,1,.3-.251.8.8,0,0,0,.251-.3h0A3.446,3.446,0,0,1,454,386.9a3.446,3.446,0,0,0-.274-.754h0a4.415,4.415,0,0,0-.914-1.188h0q-.091.091-.091.137t-.091.046h0a.75.75,0,0,1-.228-.046,1.768,1.768,0,0,1-.229-.091h0a1.03,1.03,0,0,0-.366-.183h0q-.137-.091-.32-.228a.575.575,0,0,1-.229-.32h0a.683.683,0,0,1-.069-.388,3.189,3.189,0,0,0,.023-.343h0q.137-.685.868-.5h0a1.661,1.661,0,0,1,.868.594,6.332,6.332,0,0,1,.594.868h0q.137.229.3.457a1.942,1.942,0,0,1,.251.5h0q.091.228.183.5a1.617,1.617,0,0,0,.274.5h0q.091-.594.183-1.211t.183-1.256h0q.091-.274.16-.571a3.6,3.6,0,0,1,.16-.525h0a2.27,2.27,0,0,1,.251-.457A.838.838,0,0,1,455.916,382.125Z" transform="translate(-449.063 -382.125)" fill="#d3b063"/>
      </g>
    </g>
    <g id="Group_62" data-name="Group 62" transform="translate(335.943 307.908)">
      <g id="Group_61" data-name="Group 61" transform="translate(0 0)">
        <path id="f1_2" data-name="f1 2" d="M1519.728,389.59h0q.137.137,0,.685h0q-.091.548-.274.548h0l-.274-.366a.76.76,0,0,0-.594-.366h0q-.639,0-.914,2.4t-.5,2.353h0q-.274,0-.594-1.051h0a3.984,3.984,0,0,0-1.234-2.056h0a.71.71,0,0,1-.137.183h0q-.137.046-.754-.3t-.662-.617h0q-.137-1.234.457-1.234h0q1.1-.046,2.33,2.33h0a11.021,11.021,0,0,0,.5,1.142h0q.137-1.142.365-2.284h0q.366-2.1,1.142-2.056h0A1.51,1.51,0,0,1,1519.728,389.59Z" transform="translate(-1513.762 -388.904)" fill="#d3b063"/>
      </g>
    </g>
    <g id="Group_64" data-name="Group 64" transform="translate(284.027 306.85)">
      <g id="Group_63" data-name="Group 63" transform="translate(0 0)">
        <path id="f1_2-2" data-name="f1 2" d="M966.07,378.311h0q.137.137,0,.685h0q-.091.548-.274.548h0l-.274-.366a.76.76,0,0,0-.594-.366h0q-.64,0-.914,2.4t-.5,2.353h0q-.274,0-.594-1.051h0a3.985,3.985,0,0,0-1.234-2.056h0a.716.716,0,0,1-.137.183h0q-.137.046-.754-.3t-.662-.617h0q-.137-1.234.457-1.234h0q1.1-.046,2.33,2.33h0a11.015,11.015,0,0,0,.5,1.142h0q.137-1.142.366-2.284h0q.365-2.1,1.142-2.056h0A1.51,1.51,0,0,1,966.07,378.311Z" transform="translate(-960.105 -377.625)" fill="#d3b063"/>
      </g>
    </g>
    <g id="Group_66" data-name="Group 66" transform="translate(228.693 306.714)">
      <g id="Group_65" data-name="Group 65" transform="translate(0 0)">
        <path id="f1_98" data-name="f1 98" d="M373.893,379.006h0a4.376,4.376,0,0,1-.594,1.919h0q-.777,1.462-1.828,1.462h0a1.356,1.356,0,0,1-.982-.525,1.8,1.8,0,0,1-.48-1.256h0a5.973,5.973,0,0,1,1.005-2.924h0q.868-1.508,1.188-1.508h0q.228,0,.228.137h0a5.65,5.65,0,0,1-.731,1.462,4.266,4.266,0,0,0-.731,1.782h0q0,1.142.959,1.142h0q.777,0,.777-.64h0q0-.137-.548-.5t-.548-.64h0a2.072,2.072,0,0,1,.228-.731h0q.274-.548.548-.548h0a2.061,2.061,0,0,1,.868.48Q373.893,378.594,373.893,379.006Z" transform="translate(-370.009 -376.173)" fill="#d3b063"/>
      </g>
    </g>
    <g id="Group_68" data-name="Group 68" transform="translate(311.109 308.617)">
      <g id="Group_67" data-name="Group 67" transform="translate(0 0)">
        <path id="f1_90" data-name="f1 90" d="M1251.8,398.842h0q0,2.148-1.919,2.147h0q-.959,0-.959-1.188h0a4.594,4.594,0,0,1,.868-2.6h0q.228-.731.365-.731h0q.137,0,.046.183h0a1.437,1.437,0,0,0-.137.548h0Q1251.8,398.248,1251.8,398.842Zm-.548.457h0q0-.091-.662-.571a5.682,5.682,0,0,0-.708-.48h0q-.091,0-.251.457a2.335,2.335,0,0,0-.16.64h0a.444.444,0,0,0,.5.5h0a2.435,2.435,0,0,0,.754-.206Q1251.252,399.436,1251.252,399.3Z" transform="translate(-1248.922 -396.466)" fill="#d3b063"/>
      </g>
    </g>
    <g id="Group_70" data-name="Group 70" transform="translate(277.213 308.137)">
      <g id="Group_69" data-name="Group 69" transform="translate(0 0)">
        <path id="f1_45" data-name="f1 45" d="M890.686,394.365h0a2.045,2.045,0,0,1-2.056,1.508h0q-1.188,0-1.188-1.371h0a4.24,4.24,0,0,1,.091-.822h0a3.817,3.817,0,0,1,.822-1.645,1.612,1.612,0,0,1,1.142-.685h0q1.325,0,1.325,2.147h0A2.472,2.472,0,0,1,890.686,394.365Zm-.64-.183h0q-.137-1.645-.959-1.645h0q-.183,0-.5.32h0a1.867,1.867,0,0,0-.457.822h0a.81.81,0,0,0-.091.366h0q0,.64.822.64h0A1.624,1.624,0,0,0,890.046,394.182Z" transform="translate(-887.442 -391.349)" fill="#d3b063"/>
      </g>
    </g>
    <g id="Group_72" data-name="Group 72" transform="translate(279.825 331.082)">
      <g id="Group_71" data-name="Group 71" transform="translate(0 0)">
        <path id="f1_29" data-name="f1 29" d="M922.421,639.149h0q0,1.416-.822,1.416h0a5.217,5.217,0,0,1-1.736-.366h0q-1.6,1.1-3.838,2.7h0q-.594.411.685.411h0a6.986,6.986,0,0,0,2.49-.594q1.485-.594,1.713-1.188h0a.294.294,0,0,1,.137-.183h0q.137-.046.137.137h0a1.955,1.955,0,0,1-.594,1.142h0a5.382,5.382,0,0,1-4.295,1.736h0q-1.005,0-1.005-.594h0a2.408,2.408,0,0,1,.64-1.782h0a16.227,16.227,0,0,1,3.153-2.1h0a1.09,1.09,0,0,1-.731-.959h0a4.366,4.366,0,0,1,.16-.914,1.981,1.981,0,0,0,.114-.731h0a2.8,2.8,0,0,1-.046-.365h0q0-.868.548-.868h0A3.413,3.413,0,0,1,921,637.047h0A2.923,2.923,0,0,1,922.421,639.149Zm-.457.228h0q0-.137-.548-.708t-.685-.571h0q-.274,0-.274.914h0q0,.137.685.32h0Q921.964,639.56,921.964,639.377Zm-1.782-.822h0q0-.777-1.005-.777h0q-.411,0-.411.5h0q0,.731,1.051.731h0Q920.182,639.012,920.182,638.555Z" transform="translate(-915.293 -636.042)" fill="#d3b063"/>
      </g>
    </g>
    <g id="Group_74" data-name="Group 74" transform="translate(343.875 316.831)">
      <g id="Group_73" data-name="Group 73" transform="translate(0 0)">
        <path id="f1_3" data-name="f1 3" d="M1600.235,488.6h0q.137,0,.046.64h0a2.483,2.483,0,0,1-.229.822h0a.937.937,0,0,1-.685.457h0a.528.528,0,0,1-.548-.228h0a3.373,3.373,0,0,1-.457-2.193h0a32,32,0,0,1,.685-3.244h0a1.55,1.55,0,0,1,.228-.5h0q.32-.5.32-.137h0a2.242,2.242,0,0,1-.137.548h0a15.067,15.067,0,0,0-.594,3.427h0a1.827,1.827,0,0,0,.228,1.1h0a.4.4,0,0,0,.32.183h0q.457,0,.64-.64h0Q1600.1,488.6,1600.235,488.6Z" transform="translate(-1598.349 -484.059)" fill="#d3b063"/>
      </g>
    </g>
    <g id="Group_76" data-name="Group 76" transform="translate(279.073 316.57)">
      <g id="Group_75" data-name="Group 75" transform="translate(0)">
        <path id="f1_3-2" data-name="f1 3" d="M909.166,485.819h0q.137,0,.046.64h0a2.483,2.483,0,0,1-.228.822h0a.938.938,0,0,1-.685.457h0a.528.528,0,0,1-.548-.228h0a3.372,3.372,0,0,1-.457-2.193h0a31.964,31.964,0,0,1,.685-3.244h0a1.548,1.548,0,0,1,.228-.5h0q.32-.5.32-.137h0a2.248,2.248,0,0,1-.137.548h0a15.069,15.069,0,0,0-.594,3.427h0a1.826,1.826,0,0,0,.228,1.1h0a.4.4,0,0,0,.32.183h0q.457,0,.64-.64h0Q909.029,485.819,909.166,485.819Z" transform="translate(-907.28 -481.279)" fill="#d3b063"/>
      </g>
    </g>
    <g id="Group_78" data-name="Group 78" transform="translate(248.885 313.018)">
      <g id="Group_77" data-name="Group 77" transform="translate(0 0)">
        <path id="f1_3-3" data-name="f1 3" d="M587.222,447.945h0q.137,0,.046.64h0a2.487,2.487,0,0,1-.228.822h0a.937.937,0,0,1-.685.457h0a.528.528,0,0,1-.548-.228h0a3.373,3.373,0,0,1-.457-2.193h0a31.957,31.957,0,0,1,.685-3.244h0a1.549,1.549,0,0,1,.228-.5h0q.32-.5.32-.137h0a2.241,2.241,0,0,1-.137.548h0a15.075,15.075,0,0,0-.594,3.427h0a1.827,1.827,0,0,0,.228,1.1h0a.4.4,0,0,0,.32.183h0q.457,0,.64-.64h0Q587.085,447.945,587.222,447.945Z" transform="translate(-585.336 -443.405)" fill="#d3b063"/>
      </g>
    </g>
    <g id="Group_80" data-name="Group 80" transform="translate(216.521 331.161)">
      <g id="Group_79" data-name="Group 79" transform="translate(0 0)">
        <path id="f1_3-4" data-name="f1 3" d="M242.088,641.429h0q.137,0,.046.64h0a2.488,2.488,0,0,1-.228.823h0a.937.937,0,0,1-.685.457h0a.528.528,0,0,1-.548-.228h0a3.373,3.373,0,0,1-.457-2.193h0a31.969,31.969,0,0,1,.685-3.244h0a1.55,1.55,0,0,1,.228-.5h0q.32-.5.32-.137h0a2.241,2.241,0,0,1-.137.548h0a15.074,15.074,0,0,0-.594,3.427h0a1.827,1.827,0,0,0,.228,1.1h0a.4.4,0,0,0,.32.183h0q.457,0,.64-.64h0Q241.951,641.429,242.088,641.429Z" transform="translate(-240.202 -636.889)" fill="#d3b063"/>
      </g>
    </g>
    <g id="Group_82" data-name="Group 82" transform="translate(338.216 333.109)">
      <g id="Group_81" data-name="Group 81" transform="translate(0 0)">
        <path id="f1_3-5" data-name="f1 3" d="M1539.887,662.2h0q.137,0,.046.64h0a2.481,2.481,0,0,1-.229.822h0a.937.937,0,0,1-.685.457h0a.528.528,0,0,1-.548-.228h0a3.373,3.373,0,0,1-.457-2.193h0a31.963,31.963,0,0,1,.685-3.244h0a1.545,1.545,0,0,1,.228-.5h0q.32-.5.32-.137h0a2.247,2.247,0,0,1-.137.548h0a15.067,15.067,0,0,0-.594,3.427h0a1.826,1.826,0,0,0,.228,1.1h0a.4.4,0,0,0,.32.183h0q.457,0,.64-.64h0Q1539.75,662.2,1539.887,662.2Z" transform="translate(-1538.001 -657.66)" fill="#d3b063"/>
      </g>
    </g>
    <g id="Group_84" data-name="Group 84" transform="translate(353.696 310.151)">
      <g id="Group_83" data-name="Group 83" transform="translate(0 0)">
        <path id="f1_3-6" data-name="f1 3" d="M1703.193,414.821h0q-.137.011-.1-.634h0a2.486,2.486,0,0,1,.163-.838h0a.938.938,0,0,1,.647-.509h0a.528.528,0,0,1,.565.185h0a3.373,3.373,0,0,1,.628,2.15h0a32,32,0,0,1-.428,3.288h0a1.552,1.552,0,0,1-.188.519h0q-.279.526-.308.162h0a2.244,2.244,0,0,1,.093-.557h0a15.073,15.073,0,0,0,.322-3.463h0a1.826,1.826,0,0,0-.314-1.075h0a.4.4,0,0,0-.333-.157h0q-.455.036-.587.688h0Q1703.329,414.811,1703.193,414.821Z" transform="translate(-1703.088 -412.823)" fill="#d3b063"/>
      </g>
    </g>
    <g id="Group_86" data-name="Group 86" transform="translate(306.025 310.617)">
      <g id="Group_85" data-name="Group 85" transform="translate(0 0)">
        <path id="f1_3-7" data-name="f1 3" d="M1196.593,422.33h0q.137,0,.046.64h0a2.484,2.484,0,0,1-.229.822h0a.937.937,0,0,1-.685.457h0a.528.528,0,0,1-.548-.228h0a3.373,3.373,0,0,1-.457-2.193h0a31.952,31.952,0,0,1,.685-3.244h0a1.552,1.552,0,0,1,.228-.5h0q.32-.5.32-.137h0a2.242,2.242,0,0,1-.137.548h0a15.069,15.069,0,0,0-.594,3.427h0a1.827,1.827,0,0,0,.228,1.1h0a.4.4,0,0,0,.32.183h0q.457,0,.64-.64h0Q1196.456,422.33,1196.593,422.33Z" transform="translate(-1194.707 -417.79)" fill="#d3b063"/>
      </g>
    </g>
    <g id="Group_88" data-name="Group 88" transform="translate(291.293 312.484)">
      <g id="Group_87" data-name="Group 87" transform="translate(0 0)">
        <path id="f1_3-8" data-name="f1 3" d="M1039.487,442.244h0q.137,0,.046.64h0a2.483,2.483,0,0,1-.229.822h0a.937.937,0,0,1-.685.457h0a.528.528,0,0,1-.548-.229h0a3.372,3.372,0,0,1-.457-2.193h0a31.952,31.952,0,0,1,.685-3.244h0a1.55,1.55,0,0,1,.229-.5h0q.32-.5.32-.137h0a2.241,2.241,0,0,1-.137.548h0a15.07,15.07,0,0,0-.594,3.427h0a1.827,1.827,0,0,0,.228,1.1h0a.4.4,0,0,0,.32.183h0q.457,0,.64-.64h0Q1039.35,442.244,1039.487,442.244Z" transform="translate(-1037.601 -437.704)" fill="#d3b063"/>
      </g>
    </g>
    <g id="Group_90" data-name="Group 90" transform="translate(237.395 329.777)">
      <g id="Group_89" data-name="Group 89" transform="translate(0)">
        <path id="f1_16" data-name="f1 16" d="M468.248,627.564h0a4.9,4.9,0,0,1-3.792,1.6h0q-1.645-.046-1.645-1.1h0a3.564,3.564,0,0,1,.5-1.462h0a3.592,3.592,0,0,1,1.051-1.371h0q-.914-.594-.914-1.142h0a2.094,2.094,0,0,1,.708-1.211,1.932,1.932,0,0,1,1.3-.754h0q.5,0,.5.64h0a1.386,1.386,0,0,1-.137.5q-.137.32-.274.32h0a.294.294,0,0,1-.137-.183h0a.358.358,0,0,0-.366-.274h0a1.134,1.134,0,0,0-.457.183q-.32.183-.32.366h0q0,.594,1.279.594h0a1.664,1.664,0,0,0,.822-.411h0q.366-.32.594-.274h0q.137,0-.046.731h0a.989.989,0,0,1-.457.366h0a5.8,5.8,0,0,0-1.828,1.234h0q-1.142.959-1.142,1.416h0q0,.685,1.553.685h0a7.657,7.657,0,0,0,2.97-.731h0a.572.572,0,0,1,.366-.046h0Q468.476,627.336,468.248,627.564Z" transform="translate(-462.811 -622.127)" fill="#d3b063"/>
      </g>
    </g>
    <g id="Group_92" data-name="Group 92" transform="translate(214.071 307.91)">
      <g id="Group_91" data-name="Group 91" transform="translate(0 0)">
        <path id="Path_156" data-name="Path 156" d="M216.767,399.157h0q0,1.645-1.005,1.645h0q-.366,0-.685-.548h0a2.426,2.426,0,0,1-.411-1.416h0a8.691,8.691,0,0,1,.64-3.153h0a5.23,5.23,0,0,0,.229-1.645h0a5.18,5.18,0,0,0-1.279-3.609h0a.5.5,0,0,1-.183-.32h0a3.285,3.285,0,0,1,.16-.662q.16-.525.251-.525h0q.137,0,.457.548h0a8.472,8.472,0,0,1,1.142,4.249h0a6.524,6.524,0,0,1-.228,1.965h0a8,8,0,0,0-.685,2.924h0q0,1.1.64,1.1h0q.64,0,.64-.868h0q0-.366.183-.366h0Q216.767,398.472,216.767,399.157Z" transform="translate(-214.071 -388.923)" fill="#d3b063"/>
      </g>
    </g>
    <g id="Group_94" data-name="Group 94" transform="translate(273.078 311.102)">
      <g id="Group_93" data-name="Group 93" transform="translate(0 0)">
        <path id="Path_157" data-name="Path 157" d="M846.035,433.206h0q0,1.645-1.005,1.645h0q-.366,0-.685-.548h0a2.426,2.426,0,0,1-.411-1.416h0a8.688,8.688,0,0,1,.64-3.153h0a5.229,5.229,0,0,0,.228-1.645h0a5.18,5.18,0,0,0-1.279-3.609h0a.5.5,0,0,1-.183-.32h0a3.284,3.284,0,0,1,.16-.662q.16-.525.251-.525h0q.137,0,.457.548h0a8.473,8.473,0,0,1,1.142,4.249h0a6.523,6.523,0,0,1-.228,1.965h0a8,8,0,0,0-.685,2.924h0q0,1.1.64,1.1h0q.64,0,.64-.868h0q0-.366.183-.366h0Q846.035,432.521,846.035,433.206Z" transform="translate(-843.339 -422.972)" fill="#d3b063"/>
      </g>
    </g>
    <g id="Group_96" data-name="Group 96" transform="translate(248.557 326.093)">
      <g id="Group_95" data-name="Group 95" transform="translate(0 0)">
        <path id="Path_158" data-name="Path 158" d="M597.372,583.888h0q0,1.554-1.142,1.553h0a1.057,1.057,0,0,1-.777-.32h0q-.183-.137-.32.091h0a1.76,1.76,0,0,1-1.553.822h0a1.21,1.21,0,0,1-.685-.183h0a2.335,2.335,0,0,0-2.239.046h0a13.04,13.04,0,0,0-2.01,1.6h0q-.822.685-1.6,1.371h0a13.739,13.739,0,0,1-3.107,1.736h0a6.775,6.775,0,0,1-1.965.594h0q-.137,0-.137-.091h0a1.466,1.466,0,0,1,.5-.274h0a15.442,15.442,0,0,0,1.873-.823h0a16.81,16.81,0,0,0,3.838-2.924h0a10.068,10.068,0,0,1,2.924-2.285h0a1.75,1.75,0,0,1,1.873-.091h0a1.272,1.272,0,0,0,.777.274h0a1.537,1.537,0,0,0,1.553-1.1h0q.228-.685.548-.685h0q.091,0,.046.229h0q-.137.5-.046.594h0a.768.768,0,0,0,.914.228h0q.411-.091.091-.366h0a.277.277,0,0,1-.091-.411h0q.274-.64.366-.64h0Q597.372,582.837,597.372,583.888Z" transform="translate(-581.838 -582.837)" fill="#d3b063"/>
      </g>
    </g>
    <g id="Group_98" data-name="Group 98" transform="translate(261.853 299.527)">
      <g id="Group_97" data-name="Group 97" transform="translate(0 0)">
        <path id="f0_1186" data-name="f0 1186" d="M733.9,329.422h0q0,5.31-2.945,7.7h0a9.322,9.322,0,0,1-2.99,1.093h0a16.444,16.444,0,0,1-1.629.379h0q-.089,0-.089-.044h0q0-.112,1.116-.8h0q5.064-3.057,5.376-5.89h0a10.168,10.168,0,0,0,.067-1.316h0a35.666,35.666,0,0,0-.826-6.38h0l-1.339-6.425h0q-.424-2.142-.87-4.283h0a31.369,31.369,0,0,1-.58-4.283h0q-.334-.268-.334-.357h0a7.89,7.89,0,0,1,.413-1.272,4.667,4.667,0,0,1,.48-1.115h0a13.671,13.671,0,0,1,1.294,2.61h0a13.75,13.75,0,0,1,1.2,3.212h0a.274.274,0,0,1-.045.111h0q-.312.156-1.405-1.294h0Q733.9,323.956,733.9,329.422Zm2.833-29.582h0a8.31,8.31,0,0,1-1.338,3.346h0q-.09.156-.156.067h0a.423.423,0,0,1-.022-.312h0a3.579,3.579,0,0,1,.535-1.16h0a3.454,3.454,0,0,0,.468-1.182h0a18.029,18.029,0,0,1-7.607,2.164h0a14.43,14.43,0,0,1-3.5-.491h0a4.093,4.093,0,0,1,.022,1.272h0q-.134.647-.313.625h0q-.156,0-.111-.178h0a1.8,1.8,0,0,0,.111-.536h0a4.6,4.6,0,0,0-1.182-2.9h0a3.32,3.32,0,0,1,.223-.714h0a6.3,6.3,0,0,1,.469.6h0q.892,1.182,4.306,1.227h0a16.79,16.79,0,0,0,7.005-1.829h0a5.04,5.04,0,0,1,.736-.313h0Q736.731,299.527,736.731,299.84Z" transform="translate(-723.635 -299.527)" fill="#d3b063"/>
      </g>
    </g>
    <g id="Group_100" data-name="Group 100" transform="translate(246.134 306.443)">
      <g id="Group_99" data-name="Group 99" transform="translate(0)">
        <path id="f0_195" data-name="f0 195" d="M576.369,394.989h0a7.448,7.448,0,0,1-1.283,5.12,21.3,21.3,0,0,1-5.343,4.071h0q-4.8,2.833-8.12,2.833h0q-4.8,0-5.533-5.176h0a7.179,7.179,0,0,1-.09-1.093h0a12.627,12.627,0,0,1,1.093-5.2h0q.357-.736.6-.736h0q.09,0,.09.179h0a2.827,2.827,0,0,1-.134.691h0a10.44,10.44,0,0,0-.647,3.48h0q0,5.422,5.577,5.422h0q2.833,0,7.719-2.833h0q4.44-2.544,4.841-3.592h0a3.67,3.67,0,0,0,.089-1.2h0q-.134-2.588-1.7-11.333h0q-1.405-8.255-1.405-9.682h0q-.424-.312-.334-.491h0q.2-.513.6-1.472h0q.312-.692.424-.692h0a24.95,24.95,0,0,1,1.316,2.989h0q.557,1.272.914,2.32h0a1.4,1.4,0,0,0-.089.268h0q-.134,0-.468-.357h0q-.313-.313-.826-.87h0Q574.964,384.66,576.369,394.989Z" transform="translate(-556.001 -373.282)" fill="#d3b063"/>
      </g>
    </g>
    <g id="Group_104" data-name="Group 104" transform="translate(220.908 319.576)">
      <g id="Group_101" data-name="Group 101" transform="translate(0 3.164)">
        <path id="f0_316" data-name="f0 316" d="M301.4,551.588h0a6.432,6.432,0,0,1-.825,3.614h0a16.011,16.011,0,0,1-4.016,3.9h0q-3.057,2.209-5.31,2.209h0a3.835,3.835,0,0,1-3.235-1.45h0a5.505,5.505,0,0,1-1.026-3.481h0a10.952,10.952,0,0,1,.491-3.168h0q.446-1.495.714-1.428h0q.045.022.045.112h0q0-.022-.245,1.026a8.975,8.975,0,0,0-.246,2.052h0a4.271,4.271,0,0,0,.993,2.878,3.407,3.407,0,0,0,2.733,1.16h0q2.454,0,5.979-2.633h0q3.212-2.409,3.212-3.3h0a1.7,1.7,0,0,0-.29-.982h0a8.152,8.152,0,0,1-2.7.357h0q-2.41,0-2.41-1.941h0a3.9,3.9,0,0,1,.781-2.253h0a2.281,2.281,0,0,1,2.008-1.182h0a3.327,3.327,0,0,1,2.32,1.718h0A5.089,5.089,0,0,1,301.4,551.588Zm-2.32-1.316h0a2.465,2.465,0,0,0-1.628-1.048h0a.922.922,0,0,0-.457.178q-.279.179-.279.379h0q0,.447,1.071.513h0A7.187,7.187,0,0,0,299.079,550.271Z" transform="translate(-286.987 -547.078)" fill="#d3b063"/>
      </g>
      <g id="Group_102" data-name="Group 102" transform="translate(13.386 0)">
        <path id="f0_493" data-name="f0 493" d="M441.516,514.47h0q.156.223-.714,2.008h0a9.735,9.735,0,0,0-3.123,1.272h0a4.959,4.959,0,0,0,3.257,1.338h0q.268,0,.268.58h0q0,1.606-.826,1.606h0a4.108,4.108,0,0,1-2.275-.647h0a15.669,15.669,0,0,1-2.253-1.852h0a16.06,16.06,0,0,1-6.113,2.722h0v-2.142a15.656,15.656,0,0,0,4.8-1.829h0a4.931,4.931,0,0,0-2.922-1.539h0a4.75,4.75,0,0,0-1.227.134h0l-.379.134h0a3.373,3.373,0,0,1,.279-.937,8.073,8.073,0,0,1,.413-1.026h0q1.138-.959,4.93-.959h0a16.6,16.6,0,0,1,4.016.535h0A11.255,11.255,0,0,1,441.516,514.47Zm-3.19,1.272h0a19.508,19.508,0,0,0-3.235-.312h0a8.463,8.463,0,0,1,1.405,1.138h0Q437.925,515.875,438.326,515.741Z" transform="translate(-429.737 -513.332)" fill="#d3b063"/>
      </g>
      <g id="Group_103" data-name="Group 103" transform="translate(23.693 0.535)">
        <path id="f0_273" data-name="f0 273" d="M554.646,521.05h0q0,3.859-2.342,3.859h0a2.073,2.073,0,0,1-2.275-2.03h0q-.09.2-.647,1.249h0a2.943,2.943,0,0,1-1.049,1.182h0a2.962,2.962,0,0,1-1.785.647h0a2.241,2.241,0,0,1-1.707-.758,2.349,2.349,0,0,1-.658-1.762h0a20.158,20.158,0,0,1-1.339,1.74h0a4.071,4.071,0,0,1-2.878,1.272h0q-.312,0-.312-.58h0q0-1.606.87-1.606h0q1.918,0,3.882-2.744h0a3.836,3.836,0,0,1,.558-.6h0q.268-.223.357-.178h0q.134.044.045.268h0a2.653,2.653,0,0,0-.312,1.115h0q0,1.495,2.008,1.495h0q1.963,0,2.878-2.32h0a4.906,4.906,0,0,1,.446-1.049h0q.379-.557.6-.379h0q.045.045-.134.6h0a1.382,1.382,0,0,0,.357,1.45h0a2.089,2.089,0,0,0,1.606.647h0q1,0,1-.491h0a.922.922,0,0,0-.234-.58.85.85,0,0,1-.234-.446h0a5.129,5.129,0,0,1,.368-1.093q.368-.915.457-.915h0q.089,0,.29.6h0A5.61,5.61,0,0,1,554.646,521.05Z" transform="translate(-539.654 -519.042)" fill="#d3b063"/>
      </g>
    </g>
    <g id="Group_106" data-name="Group 106" transform="translate(214.818 310.104)">
      <g id="Group_105" data-name="Group 105" transform="translate(0 0)">
        <path id="f0_153" data-name="f0 153" d="M237.854,421.163h0a4.576,4.576,0,0,1-1,3.168h0a39.007,39.007,0,0,1-5.622,3.681h0q-5.533,3.257-7.117,3.257h0q-2.075,0-2.075-2.588h0a12.306,12.306,0,0,1,1.093-4.863h0q.535-1.25.736-1.227h0q.29,0-.334,1.573a7.757,7.757,0,0,0-.625,2.822h0q0,1.852,1.606,1.852h0q1.539,0,6.559-2.922h0q6.09-3.5,6.09-3.86h0q0-.825-2.03-1.919h0q-1.562-.781-3.145-1.562h0a13.257,13.257,0,0,1-4.351-3.614h0q-.112-.022-.29-.268h0q-.022-.112-.022-1.2h0a3.97,3.97,0,0,1,.044-1.16h0a4.884,4.884,0,0,1,1.7.826q1.428.87,1.361,1.026h0q-.045.156-.915.179h0a16.969,16.969,0,0,0,4.283,2.744,15.985,15.985,0,0,1,3.123,1.7h0A3.071,3.071,0,0,1,237.854,421.163Z" transform="translate(-222.037 -412.326)" fill="#d3b063"/>
      </g>
    </g>
    <g id="Group_108" data-name="Group 108" transform="translate(343.343 306.049)">
      <g id="Group_107" data-name="Group 107" transform="translate(0 0)">
        <path id="f1_83" data-name="f1 83" d="M1604.011,369.076h0q.091.137-.114.571a1.324,1.324,0,0,1-.3.48h0l-5.665,2.1h0a40.319,40.319,0,0,0-5.209,2.284h0a1.24,1.24,0,0,1,0-.685h0q.091-.457.229-.548h0A104.968,104.968,0,0,1,1604.011,369.076Z" transform="translate(-1592.68 -369.076)" fill="#d3b063"/>
      </g>
    </g>
    <g id="Group_110" data-name="Group 110" transform="translate(289.972 306.049)">
      <g id="Group_109" data-name="Group 109" transform="translate(0 0)">
        <path id="Path_159" data-name="Path 159" d="M1034.84,369.076h0q.091.137-.114.571a1.323,1.323,0,0,1-.3.48h0l-5.666,2.1h0a40.319,40.319,0,0,0-5.209,2.284h0a1.242,1.242,0,0,1,0-.685h0q.091-.457.228-.548h0A104.967,104.967,0,0,1,1034.84,369.076Z" transform="translate(-1023.509 -369.076)" fill="#d3b063"/>
      </g>
    </g>
    <g id="Group_112" data-name="Group 112" transform="translate(242.111 306.104)">
      <g id="Group_111" data-name="Group 111" transform="translate(0)">
        <path id="f1_19" data-name="f1 19" d="M531.146,369.667h0q.365,0-.32,1.005h0q-4.158,1.508-9.915,3.975h0a59.307,59.307,0,0,0-7.265,3.381h0a3.844,3.844,0,0,0,1.736,1.005h0q-.046.822-.457.822h0a2.219,2.219,0,0,1-1.1-.548q-.731-.548-.731-.868h0q0-1.142.457-1.462h0q1.051-.685,9.047-4.021h0Q530.552,369.667,531.146,369.667Z" transform="translate(-513.099 -369.667)" fill="#d3b063"/>
      </g>
    </g>
    <g id="Group_114" data-name="Group 114" transform="translate(253.372 309.213)">
      <g id="Group_113" data-name="Group 113" transform="translate(0 0)">
        <path id="f1_76" data-name="f1 76" d="M639.095,406.113h0q-.046.137-.183.594h0q-.046.274-.091.274h0a.717.717,0,0,1-.183-.137h0a6.687,6.687,0,0,0-.685-.457h0a6.191,6.191,0,0,1-2.056,1.873h0a13.448,13.448,0,0,1-1.965.914h0q-.64.274-.731.091h0q-.091-.091.685-.548h0q1.371-.777,1.873-1.1h0a5.849,5.849,0,0,0,1.6-1.462h0a2.825,2.825,0,0,0-.548-.183h0q-.868-.32-.868-.914h0a2.2,2.2,0,0,1,.685-1.508,1.859,1.859,0,0,1,1.234-.731h0q.777,0,.777,1.279h0a3.313,3.313,0,0,1-.32,1.416h0Q639.095,405.93,639.095,406.113Zm-1.188-1.645h0q0-.594-.548-.594h0q-.777,0-.777.64h0q0,.228,1.188.777h0A2.9,2.9,0,0,0,637.907,404.468Z" transform="translate(-633.191 -402.823)" fill="#d3b063"/>
      </g>
    </g>
    <path id="Path_160" data-name="Path 160" d="M1349.529,695.424l2.32,1.361-1.115,2.008-2.32-1.361Z" transform="translate(-1027.975 -358.773)" fill="#d3b063"/>
    <path id="Path_161" data-name="Path 161" d="M1277.439,501.08l2.32,1.361-1.115,2.008-2.32-1.361Z" transform="translate(-962.645 -182.653)" fill="#d3b063"/>
  </g>
</svg>
